<svg xmlns="http://www.w3.org/2000/svg" xmlns:xlink="http://www.w3.org/1999/xlink" id="Capa_1" x="0" y="0" version="1.1" viewBox="0 0 512 512" xml:space="preserve" style="enable-background:new 0 0 512 512"><g><g><g><rect width="32" height="32"/><rect width="32" height="32" x="80"/><rect width="32" height="32" x="160"/><rect width="32" height="32" x="240"/><rect width="32" height="32" x="320"/><rect width="32" height="32" x="400"/><rect width="32" height="32" x="480"/><rect width="32" height="32" y="480"/><rect width="32" height="32" x="80" y="480"/><rect width="32" height="32" x="160" y="480"/><rect width="32" height="32" x="240" y="480"/><rect width="32" height="32" x="320" y="480"/><rect width="32" height="32" x="400" y="480"/><rect width="32" height="32" y="400"/><rect width="32" height="32" y="320"/><rect width="32" height="32" y="240"/><rect width="32" height="32" y="160"/><rect width="32" height="32" y="80"/><rect width="32" height="32" x="480" y="400"/><rect width="32" height="32" x="480" y="320"/><rect width="32" height="32" x="480" y="240"/><rect width="32" height="32" x="480" y="160"/><rect width="32" height="32" x="480" y="80"/><rect width="32" height="32" x="480" y="480"/><path d="M96,416h320V96H96V416z M128,128h256v256H128V128z"/></g></g></g></svg>